<svg xmlns="http://www.w3.org/2000/svg" viewBox="0 0 209.98 206.94"><defs><style>.cls-1{fill:#ba1924;}.cls-2{fill:#f2e53b;}.cls-3{fill:#db2835;}</style></defs><title>NinNiku</title><g id="レイヤー_2" data-name="レイヤー 2"><g id="レイヤー_1-2" data-name="レイヤー 1"><polygon class="cls-1" points="209.98 108.76 176.8 69.08 148.34 52.54 142.32 54.59 155.22 62.52 187.78 95.01 200.87 147.19 208.6 135.59 209.98 108.76"/><polygon class="cls-1" points="22.63 79.66 7.47 103.87 0.93 125.65 0 157.03 26.97 190.04 52.7 197.57 62.69 196.73 38.76 151.24 41.81 84.38 49.75 57.77 34.69 60.16 22.63 79.66"/><polygon class="cls-2" points="103.44 10.9 88.52 0 90.66 10.29 124.83 77.41 146.93 133.26 154.81 179.31 182.3 179.14 192.76 161.31 183.61 113.71 156.15 73.44 138.39 60.33 121.77 40.8 103.44 10.9"/><polygon class="cls-3" points="88.62 206.94 73.01 199.17 52.62 154.29 52.62 84.12 61.3 44.24 65.17 14.64 73.01 0 83.8 13.91 114.86 77.41 130.12 125 150.18 190.5 130.12 202.49 88.62 206.94"/></g></g></svg>